<?xml version="1.0" standalone="no"?>
<!DOCTYPE svg PUBLIC "-//W3C//DTD SVG 20010904//EN"
 "http://www.w3.org/TR/2001/REC-SVG-20010904/DTD/svg10.dtd">
<svg version="1.0" xmlns="http://www.w3.org/2000/svg"
 width="512.000000pt" height="512.000000pt" viewBox="0 0 512.000000 512.000000"
 preserveAspectRatio="xMidYMid meet">

<g transform="translate(0.000000,512.000000) scale(0.100000,-0.100000)"
fill="#000000" stroke="none">
<path d="M2475 5113 c-127 -11 -288 -38 -415 -69 -459 -113 -884 -356 -1216
-696 -429 -438 -673 -983 -725 -1616 -39 -477 85 -1016 332 -1442 411 -707
1082 -1154 1914 -1272 117 -16 503 -16 620 0 458 65 877 235 1225 498 319 241
573 544 751 897 46 91 53 90 -99 22 -268 -118 -539 -175 -837 -175 -308 0
-580 57 -856 180 -234 105 -428 239 -615 425 -380 379 -592 863 -611 1396 -12
349 55 673 207 987 152 316 354 555 658 781 l102 76 -37 7 c-38 7 -324 8 -398
1z"/>
</g>
</svg>
